<svg width="312" height="85" viewBox="0 0 312 85" fill="none" xmlns="http://www.w3.org/2000/svg">
<g clip-path="url(#clip0)">
<path d="M309.869 72.0375C309.23 71.6125 308.59 70.975 307.951 70.3375C307.311 69.7 306.885 68.85 306.459 67.7875C306.033 66.725 305.607 65.2375 305.393 63.75C305.18 62.05 304.967 60.1375 304.754 57.5875C304.754 56.7375 304.754 55.25 304.754 53.3375V40.375C304.754 38.25 304.754 36.125 304.754 34.2125L304.967 28.9C304.967 27.625 304.967 26.5625 305.18 25.925C305.18 25.2875 305.393 24.225 304.328 23.1625L294.951 13.8125C294.525 13.3875 294.311 12.9625 293.672 12.75C292.82 12.325 291.754 11.9 290.475 11.6875C289.41 11.475 288.131 11.2625 286.852 11.05C283.23 10.625 279.607 10.8375 276.41 11.475C273.852 12.1125 272.148 13.3875 271.508 15.0875L271.295 17.425C270.656 15.3 269.377 13.6 267.885 12.325L268.525 12.5375L258.934 2.97501V3.40001C258.295 2.76251 257.656 1.91251 256.803 1.48751C254.033 1.22935e-05 251.262 -0.424988 248.066 1.22935e-05C246.148 0.425012 244.443 1.06251 243.164 1.91251C241.885 2.76251 240.82 3.82501 239.967 5.10001C239.115 6.37501 238.689 7.65001 238.475 9.13751C238.262 10.4125 238.475 11.6875 238.689 12.9625C239.115 15.0875 239.967 16.575 241.246 17.85C241.672 18.275 242.098 18.7 242.738 18.9125C242.098 19.7625 241.672 20.4 241.459 20.6125C241.033 21.0375 239.754 22.1 239.541 23.375L233.574 17.425C232.934 16.7875 231.869 16.3625 230.803 16.3625L223.131 16.15C221.852 16.15 220.574 16.15 219.508 15.9375L215.033 15.725C213.754 15.9375 212.689 16.575 212.049 17.6375C211.836 18.275 211.623 18.7 211.41 19.55L209.918 26.5625C209.279 26.5625 208.639 26.775 208.213 26.775C207.148 26.9875 205.016 28.05 204.377 31.025C204.164 32.0875 204.164 33.15 203.951 34.2125L199.049 29.75V29.9625C198.836 29.75 198.836 29.75 198.623 29.5375C195.639 26.775 192.016 25.2875 187.754 25.2875C182.852 25.2875 178.59 27.4125 174.967 31.2375L173.475 29.75C173.475 29.5375 173.262 29.5375 173.262 29.5375L173.049 29.325C172.623 28.9 171.984 28.475 171.344 28.05C166.869 25.075 160.689 24.4375 153.869 27.2C151.738 28.05 149.82 29.5375 148.115 31.2375L145.344 28.6875C144.918 28.2625 144.492 27.8375 143.852 27.4125C143 26.9875 141.934 26.5625 140.656 26.35C139.59 26.1375 138.311 25.925 136.82 25.7125C133.197 25.2875 129.574 25.5 126.59 26.1375C124.459 26.775 122.967 27.625 122.115 29.1125C120.836 28.2625 119.77 27.4125 118.492 26.9875C117.213 26.35 115.934 26.1375 114.656 25.925C113.377 25.7125 112.525 25.7125 111.459 25.7125C107.836 25.925 104.639 26.775 101.869 28.475C99.0984 30.175 96.7541 32.3 94.8361 34.85C94.623 35.275 94.4098 35.4875 94.1967 35.9125L88.4426 30.175C87.8033 29.5375 87.1639 28.9 86.5246 28.475C84.6066 27.2 82.2623 26.1375 79.2787 25.5C77.3607 25.075 75.4426 25.075 73.7377 25.5C72.0328 25.7125 70.541 26.35 69.0492 27.2C67.7705 28.05 66.4918 28.9 65.4262 29.9625C64.3607 31.025 63.5082 32.0875 62.8689 33.3625L60.0984 30.6C60.0984 30.6 60.0984 30.3875 59.8852 30.3875C58.3934 28.9 56.6885 27.625 54.7705 26.775C51.1475 25.2875 46.2459 25.075 42.4098 26.35C40.7049 26.9875 39.2131 27.625 37.9344 28.475C36.6557 29.325 35.3771 30.175 34.5246 31.2375C33.6721 32.0875 33.0328 32.9375 32.3934 33.575L29.8361 30.8125C29.623 30.6 29.623 30.3875 29.4098 30.3875C29.1967 30.175 28.7705 29.9625 28.5574 29.75C27.2787 28.6875 25.7869 27.625 24.2951 26.9875C20.6721 25.5 15.7705 25.2875 11.9344 26.5625C10.2295 27.2 8.73771 27.8375 7.45902 28.6875C6.18033 29.5375 4.90164 30.3875 4.04918 31.45C3.19672 32.5125 2.13115 32.9375 1.4918 33.575L0 35.9125L2.34426 37.4C3.40984 38.0375 4.2623 38.675 5.11475 39.7375C5.96721 40.8 6.81967 41.8625 7.67213 43.1375C8.52459 44.4125 9.16393 45.6875 9.59016 46.9625C10.2295 48.45 10.6557 49.725 11.082 51L15.1311 64.175C15.5574 65.45 15.9836 66.725 16.1967 67.7875C16.4098 68.425 16.623 69.4875 17.2623 70.3375L27.2787 80.5375C27.918 81.175 28.5574 81.6 29.623 82.025C31.3279 82.6625 33.0328 83.3 34.9508 83.5125C36.8689 83.725 38.3607 83.9375 40.0656 83.9375H42.623C46.2459 83.725 49.4426 82.45 52.4262 79.9C53.2787 79.05 54.1311 78.2 54.9836 77.35L58.1803 80.5375C58.8197 81.175 59.459 81.6 60.5246 82.025C62.2295 82.6625 63.9344 83.3 65.8525 83.5125C67.7705 83.725 69.2623 83.9375 70.9672 83.9375H73.5246C76.5082 83.725 79.7049 82.875 82.6885 81.6L83.9672 80.9625C87.3771 79.2625 90.5738 76.7125 93.3443 73.7375C94.623 72.4625 95.6885 70.975 96.541 69.4875L104.852 77.775V77.5625C106.557 79.2625 108.475 80.75 110.607 81.6C113.164 82.875 116.361 83.3 119.77 82.875C121.049 82.6625 122.115 82.6625 123.393 82.2375C124.672 82.025 126.164 81.3875 127.443 80.75C128.721 80.1125 130 79.05 131.066 77.775C131.279 77.5625 131.279 77.35 131.492 77.35L133.197 79.05C134.049 79.9 134.689 80.5375 135.754 81.175C138.311 82.875 141.508 83.5125 144.918 83.5125C145.131 83.5125 145.344 83.5125 145.771 83.5125C147.049 83.5125 148.328 83.3 149.607 83.0875C150.885 82.875 152.377 82.45 153.656 81.8125C154.934 81.175 156.213 80.325 157.492 79.2625C157.705 79.05 157.918 78.625 158.131 78.4125L160.689 80.9625C161.115 81.3875 161.541 81.8125 162.393 82.025C162.82 82.2375 163.459 82.45 164.951 82.45L180.934 83.3C182.852 83.0875 183.492 82.2375 183.918 81.3875C184.131 80.9625 184.344 80.325 184.557 79.05C184.557 77.9875 184.771 76.5 184.984 74.8L189.885 79.6875V79.475C190.738 80.325 191.59 80.9625 192.656 81.6C194.148 82.45 195.639 83.0875 197.131 83.3C198.623 83.5125 199.902 83.725 201.18 83.725C202.246 83.725 203.311 83.5125 204.59 83.3C206.082 83.0875 207.361 82.6625 208.852 82.025C210.344 81.3875 211.836 80.5375 213.328 79.475C214.82 78.4125 216.098 77.1375 217.164 75.4375L221.213 79.475V79.2625C221.852 79.9 222.492 80.5375 223.131 80.9625C224.836 82.2375 226.754 83.0875 228.885 83.725C230.59 84.15 232.082 84.3625 234 84.3625C234.426 84.3625 234.852 84.3625 235.279 84.3625C237.623 84.15 240.18 83.5125 242.738 82.2375C245.508 80.9625 248.066 78.8375 249.984 75.65L251.049 73.95L254.246 77.35V77.1375C255.738 78.625 257.443 79.9 259.361 80.9625C262.131 82.45 265.328 82.875 268.738 82.6625C270.016 82.45 271.508 82.2375 273 81.8125C274.492 81.3875 275.984 80.75 277.262 79.9C278.541 79.05 279.607 77.9875 280.672 76.925L283.016 79.2625V79.05C283.443 79.475 283.656 79.9 283.869 80.1125C286.426 82.2375 289.836 83.5125 293.885 83.5125C295.164 83.5125 296.443 83.3 297.934 83.0875C299.426 82.6625 300.918 82.2375 302.41 81.6C303.902 80.9625 305.393 80.1125 306.672 79.05C308.164 77.9875 309.443 76.7125 310.508 75.225L312 73.1L309.869 72.0375ZM246.787 30.8125C247.213 30.8125 247.426 30.8125 247.852 30.8125C246.787 31.875 245.721 32.9375 244.656 34.2125C244.656 34.2125 244.656 34.2125 244.656 34.425C244.656 34 244.656 33.575 244.656 33.15C244.656 32.725 244.656 32.3 244.656 32.0875V31.025C244.656 30.8125 244.656 30.8125 244.656 30.6C244.869 30.6 244.869 30.8125 245.082 30.8125C245.295 30.6 246.148 30.8125 246.787 30.8125Z" fill="#252F3F"/>
<path d="M62.8687 41.6501C63.0818 42.9251 63.295 44.2001 63.5081 46.1126C63.7212 47.8126 63.9343 49.725 64.1474 51.6375C64.3605 53.55 64.3605 55.4625 64.5737 57.375C64.5737 59.2875 64.7868 60.9876 64.7868 62.4751C65.4261 61.2001 66.2786 59.7125 66.9179 58.225C67.5573 56.525 68.1966 54.825 68.6228 53.125C69.0491 51.425 69.4753 49.7251 69.6884 48.0251C69.9015 46.3251 70.1146 44.8375 70.1146 43.5625C70.1146 41.65 69.9015 39.95 69.0491 38.0375C68.4097 36.3375 67.131 35.0625 65.4261 34.6375C65.8523 33.7875 66.4917 32.9376 67.3441 32.0876C68.1966 31.2376 69.2622 30.6001 70.3278 29.9626C71.3933 29.3251 72.672 28.9 74.1638 28.6875C75.6556 28.475 77.1474 28.475 78.6392 28.6875C81.1966 29.1125 83.3278 29.9626 84.8196 31.0251C86.3114 32.0876 87.3769 33.3625 88.2294 34.6375C88.8687 35.9125 89.5081 37.1876 89.7212 38.6751C89.9343 39.9501 90.1474 41.225 90.1474 42.075C90.3605 46.1125 89.7212 49.725 88.0163 53.3376C86.5245 56.9501 84.3933 60.1375 81.836 62.6875C79.2786 65.45 76.5081 67.575 73.3114 69.275C70.1146 70.975 66.9179 71.8251 63.9343 72.0376C63.7212 72.0376 63.0818 72.0376 61.59 72.0376C60.0982 72.0376 58.6064 71.825 56.9015 71.6125C55.1966 71.4 53.7048 70.975 52.213 70.3375C50.7212 69.7 49.8687 68.85 49.6556 67.575L47.7376 61.2C45.8196 64.175 43.9015 66.7251 41.3441 68.8501C38.9999 70.9751 36.2294 72.0375 33.2458 72.25C33.0327 72.25 32.3933 72.25 30.9015 72.25C29.4097 72.25 27.9179 72.0375 26.213 71.825C24.5081 71.6125 23.0163 71.1875 21.5245 70.55C20.0327 69.9125 19.1802 69.0626 18.9671 67.7876C18.754 66.7251 18.3277 65.4501 17.9015 63.9626C17.4753 62.4751 17.0491 60.9875 16.6228 59.5C15.7704 57.375 15.3441 55.8876 14.9179 54.4001C14.4917 52.9126 14.0654 51.6376 13.6392 50.1501C13.213 48.6626 12.5736 47.3876 12.1474 45.9001C11.5081 44.4126 10.8687 42.9251 10.0163 41.6501C9.16381 40.375 8.31135 39.1 7.24577 37.825C6.1802 36.7625 5.11463 35.7 3.83594 35.0625C4.26217 34.425 4.90151 33.575 5.75397 32.725C6.60643 31.875 7.672 31.2375 8.73758 30.3875C9.80315 29.75 11.295 29.1125 12.5736 28.6875C14.0654 28.2625 15.5573 28.05 17.2622 28.05C19.3933 28.05 21.3113 28.475 23.0163 29.1125C24.7212 29.75 26.213 30.8125 27.2786 32.0876C28.5573 33.3626 29.4097 34.8501 30.2622 36.3376C31.1146 38.0376 31.754 39.7376 31.9671 41.6501C32.1802 42.9251 32.3933 44.2001 32.6064 46.1126C32.8195 47.8126 33.0327 49.725 33.2458 51.6375C33.4589 53.55 33.4589 55.4625 33.672 57.375C33.672 59.2875 33.8851 60.9876 33.8851 62.4751C34.7376 61.8376 35.59 60.9875 36.4425 59.5C37.295 58.0125 37.9343 56.3126 38.5737 54.6126C39.213 52.7001 39.6392 50.7875 40.0655 48.6625C40.4917 46.5375 40.7048 44.625 40.7048 42.5C39.8523 41.0125 38.7868 39.7376 37.7212 38.4626C36.6556 37.1875 35.3769 36.1251 34.0982 35.4876C34.5245 34.8501 35.1638 34.0001 36.0163 33.1501C36.8687 32.3001 37.9343 31.6625 38.9999 30.8125C40.0655 30.175 41.5573 29.5375 42.8359 29.1125C44.3277 28.6875 45.8196 28.475 47.5245 28.475C49.6556 28.475 51.5737 28.9 53.2786 29.5375C54.9835 30.175 56.4753 31.2375 57.5409 32.5125C58.8196 33.7875 59.672 35.275 60.5245 36.7625C61.3769 38.25 62.6556 39.7376 62.8687 41.6501Z" fill="white"/>
<path d="M149.18 64.6001C148.328 65.8751 147.262 66.9376 146.197 67.7876C145.131 68.6376 144.065 69.2751 142.787 69.9126C141.721 70.3376 140.442 70.7626 139.377 70.9751C138.098 71.1876 137.033 71.4 135.967 71.4C132.557 71.6125 129.787 70.7626 127.442 69.4876C125.098 68.0001 123.393 65.6626 122.328 62.4751C121.262 64.1751 120.41 65.45 119.344 66.5125C118.278 67.5751 117.213 68.4251 116.147 69.0626C115.082 69.7001 114.016 70.125 112.951 70.3375C111.885 70.55 110.819 70.7626 109.541 70.7626C106.557 70.9751 104 70.7626 101.656 69.7001C99.5244 68.6376 97.6063 67.3626 96.1145 65.6626C94.6227 63.9626 93.5572 61.8376 92.7047 59.7126C91.8522 57.3751 91.426 55.0376 91.426 52.7001C91.2129 49.9376 91.6391 46.9625 92.4916 44.2C93.344 41.4375 94.6227 38.8876 96.3277 36.5501C98.0326 34.2126 100.164 32.3 102.508 30.8125C105.065 29.325 107.836 28.475 110.819 28.475C111.672 28.475 112.524 28.475 113.59 28.6875C114.656 28.9 115.721 29.1125 116.787 29.5375C117.852 29.9625 118.918 30.6 119.983 31.4501C121.049 32.3001 121.901 33.3625 122.754 34.6375L123.606 30.8125C124.033 29.75 124.885 29.1125 126.59 28.6875C128.295 28.2625 130 28.05 132.131 28.05C133.41 28.05 134.688 28.05 135.967 28.2625C137.246 28.475 138.311 28.6876 139.377 28.9001C140.442 29.1126 141.295 29.5375 141.934 29.75C142.574 30.175 142.787 30.3875 142.787 30.8125C142.574 31.875 142.574 33.3626 142.574 35.2751C142.574 37.1876 142.36 39.1 142.36 41.225C142.36 43.3501 142.36 45.475 142.36 47.3875C142.36 49.3 142.36 51.0001 142.36 52.2751C142.36 54.4001 142.574 56.3126 143.213 57.8001C143.852 59.2876 144.278 60.5626 144.918 61.6251C145.557 62.6876 146.197 63.3251 146.836 63.7501C148.115 64.1751 148.754 64.6001 149.18 64.6001ZM121.688 56.5251C121.688 55.8876 121.688 55.2501 121.475 54.6126C121.475 53.9751 121.475 53.1251 121.475 52.4876C121.475 50.5751 121.475 48.45 121.688 46.325C121.901 44.2 122.115 42.0751 122.328 39.7376C121.049 39.7376 120.197 39.9501 119.344 40.3751C118.492 40.8001 117.852 41.6501 117.213 42.5001C116.574 43.3501 116.147 44.2 115.934 45.2625C115.721 46.325 115.508 47.3876 115.295 48.2376C115.295 49.0876 115.295 50.1501 115.508 51.4251C115.721 52.4876 116.147 53.5501 116.574 54.6126C117 55.4626 117.639 56.1001 118.492 56.7376C119.557 56.9501 120.41 56.9501 121.688 56.5251Z" fill="white"/>
<path d="M148.541 34.4251C150.459 32.3001 152.59 30.6 154.934 29.5375C157.492 28.475 159.836 28.05 161.967 28.05C164.951 28.05 167.721 28.6875 169.852 30.175C171.983 31.6625 173.475 33.7875 174.328 36.975C177.951 31.025 182.426 28.05 187.967 28.05C191.59 28.05 194.574 29.325 196.918 31.6625C199.262 34 200.967 36.975 201.819 40.5876C202.033 41.8626 202.246 43.1375 202.459 44.4125C202.459 45.6875 202.672 47.175 202.672 48.45C202.672 49.3 202.672 49.9375 202.672 50.7875C202.672 51.425 202.672 52.275 202.672 52.9125C202.672 53.3375 202.672 53.9751 202.672 54.4001C202.672 54.8251 202.672 55.25 202.672 55.8875C202.672 57.5875 202.885 59.075 203.311 60.35C203.738 61.8375 204.803 63.1126 206.295 64.6001C205.229 66.0876 204.164 67.3625 202.885 68.425C201.606 69.4875 200.328 70.125 199.049 70.7625C197.77 71.4 196.492 71.6125 195.426 71.825C194.147 72.0375 193.295 72.0376 192.442 72.0376C191.377 72.0376 190.311 71.825 189.033 71.6125C187.754 71.4 186.475 70.975 185.197 70.125C183.918 69.4875 182.852 68.425 181.787 67.3625C180.721 66.0875 180.082 64.6 179.656 62.6875C179.442 62.05 179.442 61.2 179.229 60.5625C179.229 59.925 179.229 59.075 179.229 58.4375C179.229 56.1 179.442 53.975 179.656 51.85C179.869 49.725 179.869 47.8125 179.656 46.325C179.442 45.05 178.803 44.2001 178.164 43.9876C177.311 43.7751 176.672 43.5625 176.246 43.5625C175.819 43.5625 175.606 43.5625 175.393 43.5625C175.393 45.6875 175.393 47.8126 175.18 50.3626C174.967 52.9126 174.754 55.2501 174.541 57.8001C174.328 60.1376 174.115 62.4751 173.901 64.6001C173.688 66.7251 173.475 68.425 173.262 69.7C173.049 70.3375 173.049 70.7626 172.836 70.9751C172.623 71.1876 172.41 71.4 171.983 71.4C171.983 71.4 171.557 71.4 170.705 71.4C169.852 71.4 168.787 71.4 167.721 71.1875C166.442 71.1875 165.164 70.9751 163.672 70.9751C162.18 70.9751 160.901 70.7625 159.623 70.7625C158.344 70.7625 157.278 70.55 156.426 70.55C155.574 70.55 155.147 70.3375 154.934 70.3375C154.082 69.9125 153.442 69.4876 153.442 68.8501C153.442 68.6376 153.442 68.2125 153.229 68C153.229 67.575 153.229 67.3625 153.229 66.9375C153.229 65.45 153.229 63.75 153.229 61.4125C153.229 59.075 153.442 56.525 153.442 53.975C153.442 51.2125 153.442 48.2375 153.229 45.2625C153.229 44.625 153.229 43.5626 153.229 42.7126C153.229 41.6501 153.016 40.8001 152.803 39.7376C152.59 38.6751 152.164 37.825 151.737 36.975C151.311 36.125 149.606 35.0626 148.541 34.4251Z" fill="white"/>
<path d="M238.475 65.4501C236.771 68.2126 234.852 69.9126 232.508 70.9751C230.164 72.0376 227.82 72.6751 225.902 72.8876C223.984 73.1001 222.279 72.8876 220.361 72.4626C218.656 72.0376 216.951 71.1876 215.459 70.1251C213.967 69.0626 212.689 67.7876 211.623 66.0876C210.557 64.3876 209.918 62.4751 209.279 60.3501C208.639 57.5876 208.426 54.6126 208.426 51.2126C208.426 49.3001 208.426 47.3876 208.639 45.4751C208.852 43.5626 209.066 41.6501 209.279 39.7376H205.869C205.869 39.1001 205.869 38.6751 205.656 38.0376C205.656 37.4001 205.656 36.9751 205.656 36.3376C205.656 34.8501 205.869 33.3626 206.082 32.0876C206.508 30.8126 207.148 29.9626 208.213 29.7501C208.852 29.5376 209.705 29.5376 211.197 29.5376L213.328 20.6126C213.541 20.1876 213.541 19.7626 213.754 19.3376C213.967 19.1251 214.18 18.9126 214.607 18.7001C214.607 18.7001 215.033 18.7001 215.885 18.7001C216.738 18.7001 217.59 18.7001 218.656 18.7001C219.721 18.7001 221 18.7001 222.279 18.9126C223.557 18.9126 224.836 18.9126 225.902 19.1251C226.967 19.1251 228.033 19.1251 228.672 19.1251C229.525 19.1251 229.951 19.1251 229.951 19.1251C231.016 19.3376 231.443 19.7626 231.656 20.4001C232.295 20.6126 232.295 20.8251 232.295 21.2501C232.295 21.6751 232.295 22.1001 232.295 22.3126C232.295 22.7376 232.295 23.1626 232.295 23.5876C232.295 24.0126 232.295 24.6501 232.295 25.0751C232.295 25.5001 232.295 26.1376 232.295 26.7751C232.295 27.4126 232.295 28.0501 232.295 28.6876C235.066 28.6876 237.41 28.6876 239.328 28.4751C239.541 28.9001 239.967 29.3251 240.18 29.9626C240.393 30.6001 240.607 31.2376 240.82 31.8751C241.033 32.7251 241.033 33.5751 240.82 34.4251C240.607 35.2751 240.393 36.1251 239.967 36.9751C239.541 37.8251 238.902 38.4626 238.049 38.8876C237.197 39.3126 236.131 39.7376 234.639 39.7376H231.869C231.656 42.0751 231.656 44.2001 231.656 46.1126C231.656 48.0251 231.656 49.3001 231.656 50.3626C231.656 52.7001 231.869 54.6126 232.082 56.3126C232.295 58.0126 232.721 59.5001 233.361 60.5626C234 61.8376 234.639 62.6876 235.492 63.5376C236.344 64.3876 237.197 65.0251 238.475 65.4501Z" fill="white"/>
<path d="M246.147 17.425C244.869 17.2125 244.016 16.575 242.951 15.725C242.098 14.875 241.459 13.8125 241.033 12.1125C240.82 11.2625 240.82 10.2 241.033 9.35003C241.246 8.28753 241.459 7.43753 242.098 6.58753C242.738 5.73753 243.377 4.88753 244.442 4.25003C245.508 3.61253 246.787 3.18753 248.279 2.76253C250.836 2.33753 253.18 2.76253 255.311 3.82503C257.442 5.10003 258.721 7.01253 259.36 9.77503C259.574 10.8375 259.787 11.6875 259.787 12.9625C259.787 15.725 259.147 18.275 257.656 20.4C256.164 22.7375 254.033 24.65 251.475 26.35C250.623 26.9875 249.77 27.4125 249.131 27.625C248.492 27.8375 247.852 28.05 247.426 28.05C246.787 28.2625 245.934 28.05 245.295 27.8375C244.656 27.625 244.016 27.4125 243.59 26.9875C243.164 26.5625 242.738 26.1375 242.311 25.7125C241.885 25.2875 241.672 24.8625 241.672 24.4375C241.459 24.0125 241.885 23.375 242.951 22.525C243.59 21.8875 244.016 21.25 244.656 20.1875C245.295 19.55 245.934 18.4875 246.147 17.425Z" fill="white"/>
<path d="M299 64.8125C298.148 66.0875 297.082 67.15 295.803 68.2125C294.525 69.0625 293.459 69.9125 291.967 70.55C290.689 71.1875 289.41 71.6125 288.131 71.825C286.852 72.0375 285.787 72.25 284.721 72.25C281.311 72.25 278.541 71.4 276.41 69.4875C274.279 67.7875 272.787 65.2375 271.934 62.05C271.295 63.75 270.656 65.2375 269.803 66.3C268.951 67.3625 267.885 68.425 266.82 69.0625C265.754 69.7 264.475 70.3375 263.197 70.7625C261.918 71.1875 260.639 71.4 259.574 71.4C256.59 71.6125 253.82 71.1875 251.688 70.125C249.344 69.0625 247.426 67.3625 245.934 65.45C244.443 63.5375 243.164 61.4125 242.525 58.8625C241.672 56.525 241.459 53.975 241.459 51.6375C241.459 48.875 241.885 45.9 242.951 43.1375C244.016 40.375 245.295 37.825 247.213 35.4875C248.918 33.15 251.049 31.45 253.607 29.9625C256.164 28.475 258.934 27.8375 262.131 27.8375C263.836 27.8375 265.541 28.2625 267.459 28.9C269.377 29.5375 271.295 31.2375 273 33.575L274.279 15.725C274.705 14.6625 275.77 14.025 277.475 13.6C279.18 13.175 281.098 12.9625 283.016 12.9625C284.295 12.9625 285.574 12.9625 286.852 13.175C288.131 13.3875 289.197 13.6 290.262 13.8125C291.328 14.025 291.967 14.2375 292.607 14.6625C293.246 15.0875 293.459 15.3 293.459 15.725C293.246 16.3625 293.246 17.6375 293.246 19.125C293.246 20.6125 293.246 22.3125 293.033 24.4375C293.033 26.35 293.033 28.475 293.033 30.8125C293.033 33.15 293.033 35.275 293.033 37.4C293.033 39.7375 293.033 42.075 293.033 43.9875C293.033 45.9 293.033 47.3875 293.033 48.45C293.033 51 293.246 53.125 293.672 54.825C294.098 56.525 294.525 58.225 294.951 59.5C295.59 60.775 296.23 61.8375 296.869 62.6875C297.295 63.5375 298.148 64.175 299 64.8125ZM271.082 56.1C271.295 53.7625 271.295 51.2125 271.508 48.45C271.508 45.6875 271.721 42.925 271.934 39.7375C270.656 39.7375 269.803 39.95 268.951 40.375C268.098 40.8 267.459 41.4375 266.82 42.2875C266.18 43.1375 265.754 43.9875 265.541 45.05C265.328 46.1125 265.115 47.175 264.902 48.025C264.689 48.875 264.902 49.9375 265.115 51C265.328 52.0625 265.754 53.125 266.18 53.975C266.607 54.825 267.459 55.4625 268.311 55.8875C268.951 56.525 270.016 56.525 271.082 56.1Z" fill="white"/>
</g>
<defs>
<clipPath id="clip0">
<rect width="312" height="85" fill="white"/>
</clipPath>
</defs>
</svg>
